{
	"asset":{
		"generator":"Khronos glTF Blender I/O v5.1.20",
		"version":"2.0"
	},
	"extensionsUsed":[
		"KHR_lights_punctual"
	],
	"extensionsRequired":[
		"KHR_lights_punctual"
	],
	"extensions":{
		"KHR_lights_punctual":{
			"lights":[
				{
					"color":[
						1,
						1,
						1
					],
					"intensity":79.57747154594767,
					"type":"point",
					"name":"Light"
				}
			]
		}
	},
	"scene":0,
	"scenes":[
		{
			"name":"Scene",
			"nodes":[
				0,
				1,
				2,
				3
			]
		}
	],
	"nodes":[
		{
			"extensions":{
				"KHR_lights_punctual":{
					"light":0
				}
			},
			"name":"Light",
			"rotation":[
				-0.28416627645492554,
				0.7269423007965088,
				0.34203392267227173,
				0.5232754945755005
			],
			"translation":[
				4.076245307922363,
				5.903861999511719,
				-1.0054539442062378
			]
		},
		{
			"camera":0,
			"name":"Camera",
			"rotation":[
				-0.20997299253940582,
				0.3857799470424652,
				0.09062844514846802,
				0.8937962055206299
			],
			"translation":[
				7.358891487121582,
				4.958309173583984,
				6.925790786743164
			]
		},
		{
			"mesh":0,
			"name":"char1"
		},
		{
			"name":"PointCloud"
		}
	],
	"cameras":[
		{
			"name":"Camera",
			"perspective":{
				"aspectRatio":1.7777777777777777,
				"yfov":0.39959652046304894,
				"zfar":100,
				"znear":0.10000000149011612
			},
			"type":"perspective"
		}
	],
	"meshes":[
		{
			"name":"char1",
			"primitives":[
				{
					"attributes":{
						"POSITION":0,
						"NORMAL":1,
						"TEXCOORD_0":2,
						"TANGENT":3
					},
					"indices":4
				}
			]
		}
	],
	"accessors":[
		{
			"bufferView":0,
			"componentType":5126,
			"count":145375,
			"max":[
				44.19534683227539,
				169.9927978515625,
				14.129478454589844
			],
			"min":[
				-44.19328308105469,
				0.00917197298258543,
				-14.14332389831543
			],
			"type":"VEC3"
		},
		{
			"bufferView":1,
			"componentType":5126,
			"count":145375,
			"type":"VEC3"
		},
		{
			"bufferView":2,
			"componentType":5126,
			"count":145375,
			"type":"VEC2"
		},
		{
			"bufferView":3,
			"componentType":5126,
			"count":145375,
			"type":"VEC4"
		},
		{
			"bufferView":4,
			"componentType":5125,
			"count":725073,
			"type":"SCALAR"
		}
	],
	"bufferViews":[
		{
			"buffer":0,
			"byteLength":1744500,
			"byteOffset":0,
			"target":34962
		},
		{
			"buffer":0,
			"byteLength":1744500,
			"byteOffset":1744500,
			"target":34962
		},
		{
			"buffer":0,
			"byteLength":1163000,
			"byteOffset":3489000,
			"target":34962
		},
		{
			"buffer":0,
			"byteLength":2326000,
			"byteOffset":4652000,
			"target":34962
		},
		{
			"buffer":0,
			"byteLength":2900292,
			"byteOffset":6978000,
			"target":34963
		}
	],
	"buffers":[
		{
			"byteLength":9878292,
			"uri":"Sarah-e326e6059eac1aca0a238b2f018ca591.bin"
		}
	]
}
